# xmcd
#
# Track frame offsets: 
#        150
#        37227
#        63156
#        141378
#        194865
#        229606
#        253844
#
# Disc length: 3426 seconds
#
# Revision: 0
# Processed by: cddbd v1.5.1PL2 Copyright (c) Steve Scherf et al.
# Submitted via: ExactAudioCopy v0.95b1
#
DISCID=6d0d6007
DTITLE=The Hoax - Bremen 1999 2
DYEAR=1900
DGENRE=
TTITLE0=Hoax - Scratch My Back
TTITLE1=Hoax - I Want To Be Loved
TTITLE2=Hoax - Don't Shake My Hand
TTITLE3=Hoax - Bones
TTITLE4=Hoax - She's My Baby
TTITLE5=Hoax - Stone Free
TTITLE6=Hoax - Outro
EXTD=
EXTT0=
EXTT1=
EXTT2=
EXTT3=
EXTT4=
EXTT5=
EXTT6=
PLAYORDER=
